<?xml version="1.0" standalone="no"?>
<!DOCTYPE svg PUBLIC "-//W3C//DTD SVG 20010904//EN"
 "http://www.w3.org/TR/2001/REC-SVG-20010904/DTD/svg10.dtd">
<svg version="1.0" xmlns="http://www.w3.org/2000/svg"
 width="500.000000pt" height="500.000000pt" viewBox="0 0 500.000000 500.000000"
 preserveAspectRatio="xMidYMid meet">

<g transform="translate(0.000000,500.000000) scale(0.100000,-0.100000)"
fill="#000000" stroke="none">
<path d="M1363 3775 c-57 -17 -132 -67 -164 -108 -37 -46 -86 -194 -98 -297
-6 -46 -12 -168 -13 -270 l-2 -185 -6 240 -6 240 -2 -198 -2 -198 -37 -15
c-61 -25 -163 -88 -163 -101 0 -6 17 -13 38 -15 l37 -3 0 -396 c0 -338 -2
-400 -15 -415 -24 -31 -40 -62 -42 -86 -1 -13 -5 29 -8 92 -5 93 -6 78 -6 -84
l1 -199 70 -22 c39 -13 112 -39 163 -59 90 -35 96 -37 205 -34 l112 3 -75 32
c-65 27 -75 34 -72 55 2 13 4 283 5 602 l2 579 -37 32 -38 32 0 209 c0 281 23
378 110 478 94 106 266 102 389 -9 23 -21 39 -31 36 -23 -10 24 -102 89 -163
114 -65 27 -152 31 -219 9z m-201 -571 c-4 -244 -4 -245 19 -270 12 -13 19
-27 15 -31 -4 -5 -19 5 -33 22 l-26 29 5 231 c5 192 11 265 22 265 1 0 0 -111
-2 -246z"/>
<path d="M1435 3658 c-46 -25 -125 -121 -112 -135 3 -3 11 6 19 20 20 38 73
94 104 111 16 8 25 15 19 15 -5 0 -19 -5 -30 -11z"/>
<path d="M1423 3600 c-41 -25 -43 -33 -3 -13 74 36 175 -27 237 -147 26 -51
28 -65 31 -196 l4 -140 -199 1 -198 2 0 156 c0 85 -2 153 -5 150 -3 -2 -7 -88
-10 -191 l-5 -186 26 -25 c14 -15 28 -33 31 -41 3 -11 10 -10 36 9 70 49 239
111 306 111 l26 0 0 105 c0 63 4 105 10 105 6 0 10 -42 10 -105 0 -100 1 -105
21 -105 20 0 21 4 17 113 -3 102 -6 118 -36 181 -31 65 -35 85 -15 73 5 -3 22
-32 39 -64 26 -53 29 -69 33 -178 3 -118 8 -134 40 -135 11 0 13 25 8 138 -5
143 -23 255 -37 232 -6 -10 -22 -1 -61 34 -30 27 -55 43 -59 37 -3 -7 -20 4
-41 25 -69 72 -145 92 -206 54z"/>
<path d="M1135 3589 c-4 -6 -5 -12 -2 -15 2 -3 7 2 10 11 7 17 1 20 -8 4z"/>
<path d="M1882 3090 c0 -14 2 -19 5 -12 2 6 2 18 0 25 -3 6 -5 1 -5 -13z"/>
<path d="M2654 2885 c-121 -26 -207 -93 -242 -188 -23 -59 -73 -436 -73 -540
0 -161 111 -250 290 -233 183 17 286 93 327 242 15 56 15 67 3 75 -19 12 -211
11 -244 -1 -23 -9 -26 -15 -23 -48 3 -34 1 -37 -22 -37 -35 0 -36 22 -5 267
14 115 25 212 25 217 0 15 30 41 46 41 11 0 13 -11 8 -55 l-7 -55 79 1 c106 1
184 13 195 30 16 23 4 131 -20 176 -52 104 -176 143 -337 108z"/>
<path d="M3363 2885 c-74 -17 -110 -34 -159 -77 -54 -47 -86 -120 -92 -206 -8
-117 24 -178 145 -283 52 -45 75 -59 100 -59 42 0 60 -20 59 -67 -2 -33 -5
-38 -26 -38 -22 0 -26 5 -30 45 l-5 45 -110 -1 c-60 0 -126 -5 -145 -10 l-35
-10 -3 -71 c-4 -102 30 -164 115 -207 76 -38 239 -29 341 20 59 29 122 100
143 161 20 58 17 171 -5 213 -10 19 -50 64 -89 100 -156 144 -157 145 -157
182 0 38 21 64 44 55 9 -3 12 -15 9 -31 -3 -15 2 -37 12 -52 17 -26 18 -27
121 -22 61 3 110 10 116 16 7 7 12 41 12 80 0 97 -38 163 -118 204 -50 26
-161 32 -243 13z"/>
<path d="M4083 2885 c-120 -26 -187 -74 -232 -168 -27 -55 -34 -90 -61 -307
-20 -155 -29 -261 -25 -290 20 -137 132 -211 294 -196 140 13 235 63 287 152
34 58 56 148 41 163 -12 12 -183 15 -236 5 -31 -6 -32 -9 -29 -48 2 -36 0 -41
-19 -44 -13 -2 -25 4 -31 15 -11 21 40 460 58 492 14 26 54 29 47 4 -3 -10 -8
-35 -12 -55 l-6 -38 83 1 c93 1 184 11 195 23 5 4 8 36 7 70 -2 180 -145 268
-361 221z"/>
<path d="M2141 2650 c-2 -230 -6 -264 -26 -266 -32 -3 -75 -18 -75 -27 0 -6
-10 -1 -23 11 -13 12 -31 22 -40 22 -13 0 -15 7 -12 30 3 17 7 44 10 61 3 19
-3 49 -16 78 -20 47 -20 48 -53 37 -27 -8 -32 -14 -28 -33 7 -37 -14 -27 -42
21 -29 49 -75 76 -131 76 -54 0 -107 -56 -130 -135 -10 -33 -23 -63 -29 -67
-8 -6 -6 -11 4 -18 12 -8 11 -10 -8 -10 -21 0 -22 -3 -16 -37 4 -21 13 -51 21
-66 8 -16 12 -31 9 -34 -6 -7 -31 47 -42 91 -5 22 -11 27 -32 24 -32 -4 -40
-24 -12 -31 11 -3 20 -11 20 -17 0 -8 -9 -10 -24 -6 -35 9 -44 -22 -10 -34 31
-12 29 -44 -4 -48 -18 -3 -21 -8 -17 -23 4 -13 0 -28 -10 -39 -13 -15 -15 -27
-8 -62 7 -36 13 -43 35 -46 15 -2 50 4 78 12 51 15 53 15 82 -7 17 -12 54 -46
83 -76 l53 -55 41 13 c45 13 46 14 31 41 -7 13 -6 19 5 24 20 7 28 -9 20 -42
-7 -36 24 -73 55 -65 14 4 18 8 10 13 -22 14 -30 82 -18 166 11 78 11 81 -13
115 -13 19 -27 36 -31 37 -5 2 -8 12 -8 21 0 18 -34 55 -60 64 -12 4 -11 6 4
12 25 11 48 -5 59 -41 5 -16 17 -37 25 -47 9 -10 17 -25 18 -33 1 -9 5 -18 7
-20 10 -10 231 54 243 71 19 26 26 183 16 390 l-9 190 -2 -235z m-254 -192
c-3 -8 -6 -5 -6 6 -1 11 2 17 5 13 3 -3 4 -12 1 -19z m-290 -24 c-3 -3 -12 -4
-19 -1 -8 3 -5 6 6 6 11 1 17 -2 13 -5z m56 -11 c-7 -2 -21 -2 -30 0 -10 3 -4
5 12 5 17 0 24 -2 18 -5z m152 -2 c-15 -13 -63 -22 -69 -12 -9 14 5 21 43 21
20 0 31 -4 26 -9z m-93 -13 c-9 -9 -15 -9 -24 0 -9 9 -7 12 12 12 19 0 21 -3
12 -12z m226 2 c6 0 12 -9 12 -21 0 -13 -10 -23 -30 -30 -16 -6 -30 -15 -30
-20 0 -5 -7 -9 -16 -9 -14 0 -14 3 -4 15 11 13 8 17 -19 26 -17 6 -31 15 -31
20 0 12 60 29 85 23 11 -2 26 -4 33 -4z m-273 -20 c3 -5 -1 -10 -9 -10 -9 0
-16 5 -16 10 0 6 4 10 9 10 6 0 13 -4 16 -10z m75 -21 c0 -6 -4 -7 -10 -4 -5
3 -10 11 -10 16 0 6 5 7 10 4 6 -3 10 -11 10 -16z m-150 -3 c0 -3 -4 -8 -10
-11 -5 -3 -10 -1 -10 4 0 6 5 11 10 11 6 0 10 -2 10 -4z m125 -36 c3 -5 2 -10
-4 -10 -5 0 -13 5 -16 10 -3 6 -2 10 4 10 5 0 13 -4 16 -10z m-125 -20 c0 -5
-4 -10 -10 -10 -5 0 -10 5 -10 10 0 6 5 10 10 10 6 0 10 -4 10 -10z m95 -20
c3 -5 2 -10 -4 -10 -5 0 -13 5 -16 10 -3 6 -2 10 4 10 5 0 13 -4 16 -10z m100
0 c3 -5 1 -10 -4 -10 -6 0 -11 5 -11 10 0 6 2 10 4 10 3 0 8 -4 11 -10z m-75
-41 c0 -6 -4 -7 -10 -4 -5 3 -10 11 -10 16 0 6 5 7 10 4 6 -3 10 -11 10 -16z
m170 -57 c0 -15 -2 -15 -10 -2 -13 20 -13 33 0 25 6 -3 10 -14 10 -23z m-76 2
c3 -8 2 -12 -4 -9 -6 3 -10 10 -10 16 0 14 7 11 14 -7z m56 -122 c0 -15 -2
-15 -10 -2 -13 20 -13 33 0 25 6 -3 10 -14 10 -23z"/>
<path d="M1730 2722 c0 -36 2 -38 40 -49 32 -8 38 -8 30 2 -6 7 -8 25 -4 40 7
30 -6 45 -43 45 -20 0 -23 -5 -23 -38z"/>
<path d="M1511 2504 c0 -11 3 -14 6 -6 3 7 2 16 -1 19 -3 4 -6 -2 -5 -13z"/>
<path d="M2141 2044 c0 -11 3 -14 6 -6 3 7 2 16 -1 19 -3 4 -6 -2 -5 -13z"/>
<path d="M2141 1994 c0 -11 3 -14 6 -6 3 7 2 16 -1 19 -3 4 -6 -2 -5 -13z"/>
<path d="M2143 1880 c0 -36 2 -50 4 -32 2 17 2 47 0 65 -2 17 -4 3 -4 -33z"/>
</g>
</svg>
